<?xml version="1.0" standalone="no"?>
<!DOCTYPE svg PUBLIC "-//W3C//DTD SVG 20010904//EN"
 "http://www.w3.org/TR/2001/REC-SVG-20010904/DTD/svg10.dtd">
<svg version="1.0" xmlns="http://www.w3.org/2000/svg"
 width="1170.000000pt" height="393.000000pt" viewBox="0 0 1170.000000 393.000000"
 preserveAspectRatio="xMidYMid meet">
<metadata>
Created by potrace 1.16, written by Peter Selinger 2001-2019
</metadata>
<g transform="translate(0.000000,393.000000) scale(0.100000,-0.100000)"
fill="#000000" stroke="none">
<path d="M0 1965 l0 -1965 5850 0 5850 0 0 1965 0 1965 -5850 0 -5850 0 0
-1965z m1385 182 c22 -17 66 -57 97 -90 51 -52 58 -64 65 -115 17 -127 2 -215
-51 -287 -12 -16 -27 -43 -34 -58 -21 -48 -89 -71 -202 -69 -65 2 -100 -2
-110 -10 -22 -19 -52 -90 -42 -100 4 -4 37 -23 73 -41 50 -25 68 -40 83 -70
21 -45 15 -64 -41 -122 -30 -31 -38 -34 -119 -40 -47 -4 -160 -6 -251 -3
l-164 4 -54 60 -53 59 21 40 c12 21 38 49 57 61 84 54 81 48 97 189 7 72 15
182 17 245 3 131 -13 183 -66 214 -68 41 -76 69 -42 138 14 27 16 27 117 30
56 2 206 1 332 -1 l230 -4 40 -30z m1072 28 c25 -4 38 -16 58 -53 25 -44 27
-53 21 -132 -5 -77 -8 -87 -32 -107 -22 -17 -43 -22 -110 -25 -45 -2 -99 2
-119 8 -38 10 -75 45 -75 69 0 7 -9 24 -21 39 -15 20 -29 26 -58 26 -70 0
-112 -53 -104 -130 6 -60 30 -80 97 -80 96 0 124 -9 135 -43 6 -16 11 -49 11
-73 0 -24 5 -46 12 -50 7 -4 54 -7 106 -5 145 4 142 9 142 -197 0 -139 -3
-173 -18 -202 -32 -65 -45 -67 -415 -75 -362 -7 -422 -2 -447 37 -8 12 -27 36
-41 53 l-27 30 27 33 c14 19 47 55 74 81 l47 46 0 249 c0 264 -7 319 -44 338
-12 6 -35 21 -53 34 l-32 24 16 45 c18 54 24 58 88 65 66 7 721 3 762 -5z
m925 4 c24 -13 36 -68 39 -176 3 -85 1 -94 -21 -118 -22 -23 -30 -25 -113 -25
-89 0 -89 0 -124 35 -57 57 -136 70 -188 31 -19 -14 -17 -16 40 -42 32 -15 69
-40 82 -54 22 -27 26 -27 110 -25 l87 3 53 -56 c30 -31 67 -82 84 -112 27 -49
31 -64 31 -136 -1 -73 -4 -89 -41 -167 -22 -48 -44 -87 -49 -87 -5 0 -29 -18
-53 -39 -81 -71 -94 -73 -354 -65 -126 4 -237 10 -246 15 -42 22 -109 189
-109 271 0 50 28 150 49 173 39 43 43 61 22 114 -10 28 -30 64 -44 80 -22 27
-43 97 -38 130 2 8 20 35 42 59 21 25 39 51 39 59 0 8 27 41 59 73 45 44 68
59 93 62 83 8 534 6 550 -3z m2819 -34 c113 -67 123 -83 145 -218 14 -84 13
-96 -2 -137 -9 -25 -34 -62 -56 -82 -38 -36 -39 -38 -32 -85 4 -30 17 -59 34
-79 15 -17 32 -52 39 -77 8 -32 23 -57 51 -83 22 -21 40 -42 40 -47 0 -6 11
-25 25 -43 l25 -33 -26 -17 c-34 -23 -120 -29 -184 -14 -50 12 -53 15 -76 67
-14 30 -37 71 -53 91 -15 21 -33 56 -40 80 -12 44 -37 66 -90 82 -26 7 -36 5
-60 -16 -17 -14 -33 -41 -39 -66 -11 -41 -10 -42 37 -94 63 -69 77 -106 49
-131 -18 -16 -40 -18 -202 -18 -158 0 -185 2 -209 18 l-28 18 26 30 c14 17 25
35 25 40 0 5 20 29 45 53 l45 44 0 249 c0 220 -3 253 -19 289 -17 38 -23 41
-66 47 -27 4 -64 2 -86 -5 -32 -9 -43 -19 -60 -57 -38 -79 -41 -81 -139 -81
-81 0 -89 2 -114 26 -14 15 -26 31 -26 36 0 18 -94 51 -140 49 -61 -3 -82 -25
-88 -93 -5 -71 19 -104 84 -114 49 -7 69 -27 80 -81 5 -24 1 -34 -20 -50 -14
-11 -43 -23 -64 -26 -27 -5 -53 -21 -91 -57 -52 -49 -53 -51 -46 -93 4 -23 12
-47 18 -53 34 -32 227 -40 271 -11 14 10 24 32 31 68 10 51 13 56 59 81 48 25
51 26 85 10 78 -35 81 -41 81 -179 0 -170 34 -156 -400 -166 -379 -8 -439 -6
-465 23 -28 31 -12 86 37 131 l41 37 0 264 c0 225 -3 269 -17 296 -22 43 -43
52 -85 38 -52 -17 -76 -56 -76 -124 0 -31 -4 -63 -8 -70 -17 -26 -71 -44 -141
-46 -80 -2 -140 -30 -157 -73 -14 -38 -11 -209 5 -247 15 -35 40 -48 121 -62
63 -10 83 -28 90 -78 9 -55 -12 -94 -69 -134 l-39 -27 -256 0 c-226 0 -260 2
-288 18 -49 26 -67 61 -67 124 1 65 11 76 85 97 31 9 62 22 68 30 20 24 36
209 22 255 -16 56 -58 103 -83 95 -11 -3 -46 -3 -79 1 -96 11 -99 18 -99 201
0 161 7 200 39 212 11 4 582 7 1269 6 l1249 0 64 -39z m3415 35 l182 0 10 -27
c6 -16 14 -42 17 -59 9 -47 44 -76 83 -68 36 7 42 13 67 74 38 90 37 90 221
90 128 0 166 -3 177 -14 36 -37 27 -163 -17 -221 -30 -39 -39 -113 -21 -165 9
-26 11 -49 5 -69 -16 -57 -22 -195 -11 -239 7 -24 30 -63 56 -92 46 -52 75
-99 75 -122 0 -7 -22 -36 -48 -64 -48 -52 -48 -52 -127 -59 -89 -9 -237 0
-266 16 -11 5 -31 28 -44 50 -22 33 -28 38 -45 29 -10 -5 -29 -10 -42 -10 -15
0 -36 -15 -60 -42 l-36 -43 -159 0 c-102 0 -165 5 -179 12 -11 7 -32 34 -46
61 -24 47 -25 51 -11 93 8 24 28 60 44 81 39 50 47 92 55 328 8 230 7 233 -61
246 -43 8 -59 2 -79 -28 -13 -19 -16 -74 -18 -311 l-3 -287 -27 -9 c-15 -5
-38 -27 -52 -49 -16 -26 -38 -45 -67 -56 -24 -10 -60 -31 -80 -47 -36 -28 -44
-30 -157 -36 -180 -9 -212 6 -367 168 -32 34 -42 62 -66 188 -16 84 -20 137
-18 266 3 140 1 166 -14 189 -23 34 -63 60 -82 52 -38 -14 -45 -65 -45 -330
l0 -254 40 -34 c35 -30 40 -41 45 -89 7 -76 -15 -118 -75 -141 -54 -21 -260
-23 -326 -3 -33 10 -60 10 -135 -1 -116 -16 -285 -18 -345 -3 -33 9 -54 22
-76 50 -17 21 -36 40 -43 43 -28 10 -101 -16 -135 -50 -31 -30 -45 -35 -110
-44 -91 -11 -259 -12 -317 -1 -37 7 -180 102 -198 131 -4 6 -24 19 -45 30 -24
12 -42 30 -48 49 -6 16 -26 52 -46 81 -20 29 -36 64 -36 79 0 14 -3 64 -6 111
-3 47 -1 119 4 161 15 118 85 223 233 349 31 26 54 37 93 41 28 4 625 5 1326
3 701 -2 1357 -3 1456 -4z"/>
<path d="M2180 1610 c-56 -9 -124 -43 -144 -72 -9 -13 -16 -43 -16 -69 0 -62
24 -84 88 -80 64 3 88 22 106 79 7 27 23 69 35 95 12 25 21 48 21 51 0 7 -30
6 -90 -4z"/>
<path d="M2910 1587 c-14 -7 -28 -26 -34 -45 -9 -31 -6 -36 40 -84 58 -60 96
-78 162 -78 70 0 102 27 102 85 0 55 -33 85 -94 85 -25 0 -58 10 -85 25 -49
28 -57 29 -91 12z"/>
<path d="M5957 1975 c-40 -29 -51 -131 -17 -165 14 -14 33 -20 68 -20 64 0 90
26 93 93 2 39 -1 52 -22 71 -28 28 -97 40 -122 21z"/>
<path d="M8869 2011 l-24 -19 0 -249 c0 -218 2 -252 18 -280 21 -40 42 -52 86
-48 73 6 106 105 114 340 l6 160 -37 55 c-36 53 -38 55 -88 58 -38 2 -56 -2
-75 -17z"/>
<path d="M7893 1993 c-11 -16 -19 -52 -21 -93 -4 -60 -2 -70 19 -89 29 -27
118 -29 169 -3 30 15 36 23 41 62 12 81 -54 150 -143 150 -40 0 -50 -4 -65
-27z"/>
<path d="M7472 1939 c-32 -16 -41 -26 -37 -38 4 -9 9 -29 11 -46 4 -27 0 -33
-43 -59 -42 -25 -58 -29 -130 -29 -78 -1 -84 1 -114 28 -16 17 -46 53 -64 81
-48 71 -57 77 -109 70 -53 -8 -67 -23 -95 -101 -12 -33 -29 -75 -38 -94 -21
-47 -14 -147 13 -186 12 -17 26 -46 33 -66 32 -100 153 -132 244 -65 23 17 47
22 122 24 l93 4 38 -34 c37 -32 42 -34 82 -26 30 7 45 16 51 31 5 12 11 126
14 254 5 209 4 234 -11 253 l-17 20 -43 -21z"/>
<path d="M7894 1563 c-10 -16 -20 -50 -22 -78 -3 -40 0 -55 18 -77 18 -24 29
-28 71 -28 30 0 65 8 89 20 37 19 40 23 40 64 0 39 -5 48 -45 85 -38 35 -51
41 -89 41 -37 0 -47 -4 -62 -27z"/>
<path d="M9776 1507 c-7 -12 -16 -37 -19 -54 -5 -26 -2 -36 16 -48 98 -69 187
-112 187 -90 0 7 16 34 35 59 39 51 41 62 20 90 -22 29 -63 46 -114 46 -25 0
-61 4 -79 9 -28 8 -34 7 -46 -12z"/>
</g>
</svg>
