<?xml version="1.0" standalone="no"?>
<!DOCTYPE svg PUBLIC "-//W3C//DTD SVG 20010904//EN"
 "http://www.w3.org/TR/2001/REC-SVG-20010904/DTD/svg10.dtd">
<svg version="1.0" xmlns="http://www.w3.org/2000/svg"
 width="862.000000pt" height="289.000000pt" viewBox="0 0 862.000000 289.000000"
 preserveAspectRatio="xMidYMid meet">
<metadata>
Created by potrace 1.16, written by Peter Selinger 2001-2019
</metadata>
<g transform="translate(0.000000,289.000000) scale(0.100000,-0.100000)"
fill="#000000" stroke="none">
<path d="M505 1626 c-75 -33 -82 -110 -17 -186 l35 -41 -5 -172 c-5 -154 -7
-172 -24 -182 -10 -5 -33 -24 -51 -41 -43 -42 -45 -90 -5 -132 46 -49 58 -52
252 -52 196 0 222 6 254 54 20 32 21 78 0 122 -12 26 -26 36 -55 44 -39 11
-49 23 -28 36 7 4 42 7 78 8 78 1 115 22 175 99 65 85 97 153 90 197 -7 42 9
62 25 31 6 -10 12 -94 13 -185 l2 -167 -52 -52 c-29 -29 -52 -62 -52 -73 0
-12 11 -34 25 -50 14 -16 25 -32 25 -36 0 -22 98 -29 343 -26 295 3 315 8 338
73 7 19 16 35 19 35 9 0 80 -71 80 -80 0 -20 75 -30 232 -30 223 0 245 9 332
135 41 60 41 61 41 151 0 85 -2 94 -32 143 -18 29 -33 59 -33 68 0 8 16 29 35
46 34 30 35 33 35 101 0 60 -4 76 -27 109 -15 21 -36 43 -47 49 -23 13 -289
21 -389 12 -58 -5 -74 -11 -110 -41 -23 -19 -47 -45 -53 -56 -11 -20 -12 -20
-27 10 -9 16 -31 41 -50 55 l-33 26 -330 3 c-302 4 -332 2 -357 -14 -15 -10
-27 -21 -27 -25 0 -4 -4 -13 -9 -21 -7 -11 -17 -8 -49 17 -21 17 -51 36 -66
42 -42 15 -464 12 -501 -4z m520 -51 c74 -55 105 -98 115 -162 14 -84 1 -141
-53 -221 -37 -55 -64 -66 -156 -67 -74 0 -75 -1 -98 -34 -13 -19 -23 -37 -23
-42 0 -4 23 -18 51 -30 48 -22 79 -58 79 -91 0 -25 -57 -77 -92 -83 -19 -4
-102 -5 -186 -3 l-152 3 -41 41 c-41 41 -41 41 -25 72 9 17 35 43 58 59 51 34
53 43 64 265 l7 146 -52 50 -52 50 15 35 c9 23 23 37 38 40 12 3 122 4 243 4
l220 -2 40 -30z m754 28 c69 -8 91 -39 91 -128 -1 -79 -14 -96 -87 -107 -78
-11 -141 6 -156 41 -19 45 -38 61 -74 61 -65 0 -93 -98 -41 -142 14 -13 37
-18 79 -18 32 0 60 -4 63 -8 3 -5 8 -32 12 -60 l7 -52 -34 0 c-42 0 -134 -42
-142 -65 -11 -27 -8 -80 5 -93 15 -15 72 -16 98 -2 10 5 24 27 30 47 6 21 19
55 28 75 l17 38 82 0 c71 0 84 -3 93 -19 5 -11 10 -71 10 -133 0 -94 -3 -118
-20 -145 -30 -50 -63 -55 -353 -51 l-258 3 -34 40 c-19 22 -34 43 -35 46 0 3
25 32 55 64 l55 58 -1 181 c-1 99 -4 192 -8 206 -4 14 -23 36 -44 49 -44 29
-48 60 -12 96 l24 25 248 0 c136 0 272 -3 302 -7z m722 -9 c8 -9 15 -51 17
-102 5 -110 -6 -124 -98 -124 -53 0 -66 4 -89 26 -43 41 -83 51 -123 30 l-33
-17 45 -20 c25 -11 51 -28 58 -38 11 -15 26 -19 81 -19 64 0 71 -2 101 -32 92
-93 113 -194 64 -306 -26 -61 -86 -122 -140 -143 -23 -8 -129 -8 -366 0 -24 1
-63 65 -83 136 -21 70 -10 143 30 203 26 39 26 41 10 78 -9 21 -22 45 -29 54
-8 8 -19 33 -25 55 -9 33 -8 43 7 63 9 13 26 40 38 59 12 19 40 52 63 74 l43
39 208 0 c177 0 209 -2 221 -16z m-597 -271 c9 -21 24 -50 34 -65 17 -27 17
-28 -15 -60 -31 -31 -33 -32 -47 -13 -11 15 -31 20 -92 24 l-79 6 -3 51 c-3
57 4 63 78 64 19 1 49 7 65 15 42 19 40 19 59 -22z"/>
<path d="M2156 1171 c-47 -9 -51 -48 -10 -94 47 -51 88 -70 133 -62 50 9 61
21 61 65 0 41 -17 55 -84 64 -21 3 -46 11 -55 19 -10 8 -27 11 -45 8z"/>
<path d="M3447 1631 c-785 -6 -809 -7 -823 -25 -10 -14 -15 -53 -16 -125 -4
-211 -2 -217 102 -227 41 -4 70 -12 78 -22 17 -22 16 -133 -3 -159 -8 -12 -31
-27 -50 -33 -44 -15 -58 -40 -57 -106 1 -109 21 -117 304 -112 l207 3 40 39
c23 22 43 48 46 57 10 29 -30 95 -64 108 -17 6 -44 16 -60 22 -41 15 -54 47
-49 115 6 66 22 84 77 84 47 1 109 30 145 68 23 24 27 37 23 60 -6 30 7 52 30
52 10 0 13 -41 13 -191 l0 -191 -30 -28 c-38 -36 -41 -86 -7 -126 l23 -26 294
1 c257 1 299 4 334 19 35 15 45 16 66 5 17 -9 74 -13 186 -13 185 0 194 4 194
79 0 35 -6 48 -30 71 -30 28 -39 63 -19 75 16 10 57 -33 70 -74 7 -20 21 -48
33 -63 12 -15 29 -38 39 -52 41 -59 198 -61 246 -3 20 25 7 59 -49 117 -27 29
-50 58 -50 64 0 6 -11 28 -25 48 -28 42 -32 80 -10 98 27 22 75 100 75 121 0
11 -6 32 -14 47 -8 15 -18 46 -21 67 -12 63 -29 88 -87 122 -52 31 -56 31
-203 35 -82 2 -514 2 -958 -1z m1122 -54 c72 -43 91 -72 106 -158 14 -82 6
-116 -39 -158 -35 -32 -35 -88 -2 -128 13 -15 26 -42 30 -59 4 -17 18 -42 32
-55 14 -13 35 -39 46 -58 21 -33 21 -34 3 -47 -22 -16 -112 -18 -150 -4 -16 6
-32 24 -42 47 -8 21 -26 51 -39 66 -13 16 -24 37 -24 48 0 30 -44 69 -78 69
-34 0 -49 -15 -62 -61 -9 -30 -6 -36 30 -75 42 -46 52 -87 24 -98 -9 -3 -72
-6 -140 -6 -107 0 -149 6 -172 25 -6 5 58 88 78 102 19 13 20 26 20 206 0 223
-5 240 -64 245 -62 5 -83 -5 -108 -50 -25 -45 -45 -55 -115 -57 -34 -1 -46 4
-70 30 -50 55 -128 75 -165 42 -20 -18 -25 -82 -8 -113 6 -10 26 -21 49 -25
39 -6 61 -33 61 -74 0 -18 -37 -41 -65 -41 -8 0 -33 -16 -55 -36 -34 -31 -40
-42 -40 -75 0 -49 21 -59 124 -59 81 0 102 12 108 65 2 20 14 36 37 52 37 25
59 24 101 -6 23 -17 25 -25 28 -109 3 -85 1 -92 -20 -106 -33 -21 -561 -33
-598 -13 -37 20 -32 70 12 113 l33 34 -9 90 c-6 56 -6 124 0 180 8 79 7 95 -9
125 -21 41 -51 46 -91 14 -22 -17 -26 -29 -26 -68 0 -65 -20 -82 -107 -90 -74
-8 -106 -23 -122 -58 -14 -30 -14 -117 -1 -165 11 -38 26 -47 107 -63 39 -8
52 -22 55 -61 2 -39 -16 -71 -55 -94 -29 -18 -51 -20 -210 -20 -235 0 -267 14
-267 114 0 40 11 50 68 66 53 14 63 35 65 142 2 64 -1 81 -19 105 -17 23 -29
28 -70 31 -74 4 -92 10 -100 35 -12 35 -7 247 7 263 10 12 151 14 938 14 l926
-1 54 -32z m-410 -171 c9 -11 11 -62 9 -176 l-3 -161 -47 -45 c-66 -62 -74
-59 -80 27 -6 81 -24 112 -81 142 -34 18 -38 18 -74 1 -56 -25 -73 -44 -73
-76 0 -16 -5 -38 -11 -49 -9 -18 -17 -20 -62 -14 -35 4 -58 14 -70 28 -18 21
-18 22 8 44 14 13 46 28 71 34 58 15 69 36 54 99 -13 55 -27 71 -79 85 -29 9
-36 16 -36 35 0 21 5 26 34 28 26 3 43 -4 75 -30 39 -31 45 -33 122 -33 80 0
82 1 123 38 44 40 98 50 120 23z"/>
<path d="M4376 1438 c-9 -12 -16 -39 -16 -60 0 -47 32 -73 76 -62 41 10 53 21
60 61 5 27 2 39 -17 59 -30 32 -82 33 -103 2z"/>
<path d="M5783 1630 l-801 -5 -29 -25 c-67 -58 -123 -115 -123 -124 0 -5 -11
-24 -25 -42 -33 -43 -44 -99 -45 -215 0 -109 20 -193 50 -209 11 -6 20 -17 20
-25 0 -8 15 -25 34 -37 19 -13 62 -45 97 -72 59 -46 68 -49 145 -58 49 -5 119
-5 174 0 77 8 96 14 118 35 39 36 87 40 97 8 3 -11 21 -25 39 -31 44 -14 622
-16 657 -2 62 25 80 184 24 210 -22 10 -23 16 -27 174 -4 165 -2 208 12 208 4
0 9 -64 12 -143 5 -126 10 -154 36 -232 24 -69 38 -94 64 -114 18 -14 52 -43
76 -65 37 -34 50 -39 107 -45 90 -10 203 4 235 27 14 10 40 27 59 37 19 9 42
27 52 38 16 21 17 20 43 -21 34 -54 75 -79 145 -88 79 -10 197 8 225 35 28 26
49 27 84 1 51 -38 277 -46 339 -12 66 36 80 105 34 169 -59 82 -61 89 -57 245
3 95 10 164 21 202 19 65 16 139 -7 162 -10 10 -54 16 -156 20 l-141 6 -40
-44 c-23 -23 -41 -49 -41 -55 0 -27 -18 -11 -24 21 -13 68 -9 67 -363 69 -175
1 -679 0 -1120 -3z m1409 -29 c27 -6 34 -13 47 -56 15 -47 18 -50 51 -50 31 0
37 5 53 40 35 75 36 75 173 75 116 0 124 -1 135 -21 16 -31 6 -115 -18 -147
-18 -24 -20 -44 -21 -200 l-1 -173 33 -37 c18 -20 41 -52 51 -71 l17 -35 -46
-44 -47 -44 -116 4 -115 3 -32 36 c-28 33 -34 36 -61 28 -16 -5 -40 -21 -52
-35 -20 -25 -29 -28 -107 -32 -128 -7 -173 3 -197 41 -26 42 -20 94 16 141 24
32 28 49 36 144 10 139 11 244 1 260 -5 7 -25 15 -44 19 -63 10 -68 -9 -69
-255 -1 -159 -4 -212 -14 -212 -6 0 -28 -18 -48 -40 -19 -22 -42 -40 -50 -40
-8 0 -31 -13 -52 -30 -36 -29 -42 -30 -132 -30 -58 0 -107 5 -127 14 -40 17
-144 120 -158 156 -24 63 -39 186 -36 301 l3 121 -29 24 c-62 54 -76 16 -76
-223 l0 -192 29 -22 c35 -26 46 -77 27 -123 -20 -47 -67 -60 -197 -52 -57 4
-129 5 -159 4 -30 -2 -113 -3 -183 -3 l-128 0 -32 39 c-32 37 -34 38 -71 27
-22 -5 -52 -23 -68 -38 -28 -26 -33 -27 -158 -31 -71 -3 -140 -2 -152 1 -13 4
-59 33 -102 67 -44 33 -84 60 -88 60 -5 0 -15 15 -23 33 -7 17 -24 45 -37 62
-21 28 -23 38 -23 160 0 129 0 130 35 194 32 60 135 165 178 183 21 9 2141 8
2184 -1z"/>
<path d="M5823 1475 c-24 -18 -31 -126 -9 -144 24 -20 97 -19 129 2 37 24 38
83 3 117 -31 28 -99 42 -123 25z"/>
<path d="M6529 1473 c-11 -13 -13 -56 -11 -202 4 -216 9 -234 70 -229 59 5 73
41 84 218 l10 148 -26 41 c-24 38 -30 41 -70 41 -28 0 -48 -6 -57 -17z m91
-53 c22 -22 23 -31 11 -199 -8 -103 -11 -117 -32 -134 -23 -19 -24 -19 -42 5
-17 21 -19 37 -15 173 2 83 7 156 11 163 12 18 44 15 67 -8z"/>
<path d="M5142 1432 c-23 -2 -36 -11 -47 -31 -30 -59 -55 -138 -55 -174 0 -54
62 -174 98 -189 38 -15 80 -11 117 12 47 29 168 29 192 0 11 -12 30 -20 48
-20 59 0 60 2 63 203 4 205 0 219 -53 195 -24 -11 -26 -16 -21 -48 5 -32 2
-37 -29 -57 -27 -18 -49 -23 -99 -23 -61 0 -66 2 -95 35 -17 19 -37 48 -45 64
-17 33 -28 38 -74 33z m82 -109 l64 -68 75 0 c57 0 79 4 94 18 11 9 27 17 35
17 14 0 15 -14 11 -102 -3 -57 -7 -105 -9 -107 -2 -2 -26 2 -54 9 -57 14 -159
7 -222 -16 -61 -21 -90 -1 -117 78 -25 74 -26 100 -5 161 13 38 44 77 61 77 2
0 32 -30 67 -67z"/>
<path d="M5816 1148 c-22 -31 -21 -101 2 -121 23 -21 64 -22 108 -1 29 14 34
22 34 49 0 74 -106 127 -144 73z"/>
<path d="M7196 1097 c-11 -43 -5 -57 37 -84 37 -25 93 -53 103 -53 2 0 4 5 4
11 0 6 12 26 26 45 43 56 11 88 -97 97 -63 6 -67 5 -73 -16z"/>
</g>
</svg>
